<?xml version="1.0" encoding="UTF-8" standalone="no"?>
<!DOCTYPE svg PUBLIC "-//W3C//DTD SVG 1.1//EN" "http://www.w3.org/Graphics/SVG/1.1/DTD/svg11.dtd">
<svg version="1.1" xmlns="http://www.w3.org/2000/svg" xmlns:xlink="http://www.w3.org/1999/xlink" preserveAspectRatio="xMidYMid meet" viewBox="0 0 640 640" width="640" height="640"><defs><path d="M2.66 83.12C0 93.51 0 97.5 0 292.38C0 487.26 0 491.25 2.66 501.64C12.92 541.6 42.63 571.44 82.32 581.56C83.16 581.78 87.38 582.84 94.97 584.76C197.99 584.76 255.23 584.76 266.67 584.76C403.61 584.76 438.37 584.36 437.97 583.03C437.57 582.23 435.97 576.5 434.24 570.38C434.03 569.65 432.96 566.01 431.05 559.45C331.86 559.45 276.76 559.45 265.74 559.45C105.5 559.45 100.04 559.32 90.05 556.79C59.28 548.93 34.37 524.02 27.44 494.18C25.58 486.59 25.31 460.88 25.31 292.38C25.31 78.06 24.78 91.38 34.23 71.93C41.03 57.94 57.94 41.03 71.93 34.23C91.38 24.78 78.06 25.31 292.38 25.31C506.84 25.31 493.52 24.78 512.83 34.37C526.29 40.89 542.27 56.74 549.2 70.2C559.59 90.31 559.45 88.05 559.45 198.21C559.45 204.72 559.45 237.31 559.45 295.98L571.84 318.89L584.1 341.67C584.34 268.14 584.47 227.29 584.5 219.12C584.89 99.24 584.76 96.31 582.1 84.45C572.91 44.22 542.27 13.05 501.64 2.66C491.25 0 487.39 0 291.85 0.13C98.44 0.13 92.31 0.27 82.59 2.8C43.02 13.05 12.79 43.42 2.66 83.12Z" id="ckXWsqejp"></path><path d="M49.42 96.97C47.29 107.1 47.29 477.93 49.42 487.79C54.48 511.37 74.73 531.08 98.44 535.48C102.97 536.28 164.37 536.81 264.67 536.81C415.59 536.81 423.72 536.68 423.05 534.41C422.65 533.21 396.28 446.1 364.18 341.13C332.21 236.04 305.7 147.86 305.43 145.19C303.97 134.14 311.83 120.82 323.02 115.75C336.2 109.63 353.92 115.49 360.45 128.14C361.51 130.27 395.48 220.58 435.71 328.75C475.93 436.91 509.1 525.62 509.37 525.75C509.64 526.02 513.23 523.22 517.36 519.36C525.89 511.63 533.35 498.05 535.48 486.32C536.28 482.46 536.81 466.74 536.81 451.56C536.81 449.71 536.81 440.48 536.81 423.85C491.89 326.91 466.94 273.05 461.95 262.28C380.83 86.85 383.36 93.24 388.15 80.59C392.82 68.73 408.4 59.54 419.86 61.94C426.65 63.4 433.44 67.4 437.71 72.33C439.84 74.73 462.61 115.75 488.19 163.57C513.9 211.26 535.21 250.42 535.88 250.42C537.34 250.42 537.08 106.7 535.48 98.44C531.08 74.73 511.37 54.48 487.79 49.42C477.13 47.15 104.43 47.55 94.97 49.82C72.6 55.28 54.21 74.33 49.42 96.97ZM259.08 91.11C270.54 102.7 275.6 111.36 278.26 123.61C280.26 133.07 280.26 207.93 278.26 217.39C275.6 229.64 270.54 238.43 259.08 249.89C250.29 258.81 246.16 261.74 235.77 266.94C217.12 276 205.53 278.66 183.82 278.79C169.57 278.93 163.44 278.26 154.25 276C116.42 266.67 90.44 242.43 86.58 213.13C84.98 200.2 84.98 140.8 86.58 127.88C88.45 113.22 94.04 102.83 106.56 90.31C114.95 82.19 119.35 78.99 129.34 74.06C152.12 63.14 174.23 59.41 198.07 62.74C223.91 66.2 243.1 75.13 259.08 91.11ZM276.13 359.38C278.79 366.44 279.06 369.77 279.46 410C279.73 438.64 279.33 455.42 278.39 460.35C275.73 473.27 268.67 484.99 257.48 495.52C229.78 521.36 184.35 529.88 144.53 516.69C111.89 505.77 90.05 483.26 86.58 456.62C84.98 443.97 84.98 384.56 86.58 371.64C88.45 356.85 94.84 345 106.83 333.54C130.54 311.03 167.44 300.91 202.87 307.03C238.83 313.29 266.14 332.74 276.13 359.38Z" id="a1FPaDTIi3"></path><path d="M113.49 117.09C110.43 122.41 109.89 124.68 109.89 133.87C109.89 146.92 112.42 152.12 122.81 162.11C137.33 175.83 157.31 182.62 182.49 182.75C207.66 182.75 228.84 175.43 242.83 161.98C252.02 153.05 255.75 145.06 255.75 134.27C255.75 113.36 237.23 95.24 208.33 87.91C196.08 84.72 171.83 84.45 158.78 87.25C140.53 91.24 121.21 103.9 113.49 117.09ZM206.46 121.88C206.46 124.01 204.87 126.94 202.6 129.34C198.74 133.2 198.47 133.2 183.15 133.2C174.63 133.2 166.5 132.54 165.04 131.87C161.31 129.87 158.25 123.21 159.31 119.22C159.71 117.35 161.71 114.69 163.44 113.22C166.37 110.96 168.9 110.56 182.75 110.56C198.61 110.56 198.74 110.56 202.6 114.42C204.87 116.82 206.46 119.75 206.46 121.88Z" id="a3YYwXlKF"></path><path d="M113.49 223.91C121.35 237.37 140.53 249.76 159.44 253.75C172.9 256.68 195.81 256.28 208.33 253.09C228.84 247.89 246.16 235.64 252.55 221.78C255.35 215.92 255.75 213.13 255.75 198.21C255.75 197.07 255.75 191.39 255.75 181.16C251.83 183.95 249.66 185.51 249.22 185.82C240.56 192.08 222.72 200.2 211.13 203.27C203.93 205.13 197.14 205.67 181.82 205.67C164.11 205.53 160.51 205.13 150.12 202.07C136.8 197.94 128.01 193.81 116.82 186.22C116.3 185.86 113.68 184.09 108.96 180.89L109.49 199.27C109.94 211.88 111.27 220.1 113.49 223.91Z" id="ep4QSpwhC"></path><path d="M122.81 349.39C112.42 359.38 109.89 364.58 109.89 377.63C109.89 386.82 110.43 389.09 113.49 394.41C121.35 407.87 140.53 420.26 159.44 424.25C172.9 427.18 195.81 426.78 208.33 423.59C252.42 412.4 269.87 375.9 243.5 350.06C240.03 346.73 234.04 342.07 230.18 339.93C215.12 331.28 188.35 326.48 169.43 329.01C150.25 331.68 134.27 338.6 122.81 349.39ZM202.6 373.1C198.74 376.96 198.47 376.96 183.82 376.96C166.9 376.96 162.24 375.37 159.98 368.97C158.38 364.04 159.84 359.38 164.11 356.45C166.5 354.72 170.63 354.32 183.29 354.32C184.37 354.32 189.79 354.32 199.54 354.32L203 358.45C205.93 365.02 205.8 369.91 202.6 373.1Z" id="b3mqJgDwg0"></path><path d="M121.75 477.67C150.39 506.31 212.33 507.1 242.03 479.26C253.62 468.34 255.75 462.48 255.75 441.83C255.75 440.71 255.75 435.07 255.75 424.92C251.03 428.11 248.41 429.89 247.89 430.25C218.45 450.36 178.76 455.55 144.26 443.7C134.67 440.37 121.75 433.58 112.29 426.78C112.09 426.64 111.06 425.93 109.23 424.65L109.23 440.5C110.47 458.09 114.64 470.47 121.75 477.67Z" id="ae3YDZA9j"></path><path d="M408.93 90.84C408.93 94.57 639.11 591.56 642.57 595.15C646.97 600.08 651.9 602.08 659.76 602.08C673.08 602.08 682 592.89 682 579.17C682 578.64 682 576.02 682 571.31C604 426.49 560.66 346.04 551.99 329.94C480.6 197.27 421.45 87.91 420.66 86.98C418.92 84.85 412.66 84.72 410.53 86.85C409.6 87.78 408.93 89.51 408.93 90.84Z" id="a7FTnHQmw"></path><path d="M407.6 405.2C451.69 549.73 488.72 669.75 490.05 672.01C494.05 678.94 500.04 682 509.9 682C520.69 682 526.15 678.94 530.15 670.54C532.41 666.02 532.95 662.95 532.55 658.29C531.61 650.16 341.8 139.86 338.74 137.47C336.34 135.73 334.87 135.6 331.94 136.8C326.48 138.93 325.42 135.6 407.6 405.2Z" id="a5GLrcF2yb"></path><path d="M550 512.57C546 520.69 542.14 526.15 535.08 533.21C529.75 538.54 523.75 544.13 521.62 545.6C521.36 545.78 520.03 546.67 517.63 548.26C519.95 554.9 521.23 558.58 521.49 559.32C523.62 565.45 526.15 570.64 526.95 571.04C527.88 571.31 530.81 570.11 533.74 568.38C550.53 557.72 565.18 541.34 573.57 524.02C573.89 523.36 575.49 520.02 578.37 514.03C573.41 503.08 570.66 497 570.11 495.78C560.92 475.4 559.45 473.14 559.45 478.87C559.32 487.26 555.32 501.91 550 512.57Z" id="a1l1Pihqjy"></path></defs><g><g><g><use xlink:href="#ckXWsqejp" opacity="1" fill="#ffffff" fill-opacity="1"></use><g><use xlink:href="#ckXWsqejp" opacity="1" fill-opacity="0" stroke="#000000" stroke-width="1" stroke-opacity="0"></use></g></g><g><use xlink:href="#a1FPaDTIi3" opacity="1" fill="#ffffff" fill-opacity="1"></use><g><use xlink:href="#a1FPaDTIi3" opacity="1" fill-opacity="0" stroke="#000000" stroke-width="1" stroke-opacity="0"></use></g></g><g><use xlink:href="#a3YYwXlKF" opacity="1" fill="#ffffff" fill-opacity="1"></use><g><use xlink:href="#a3YYwXlKF" opacity="1" fill-opacity="0" stroke="#000000" stroke-width="1" stroke-opacity="0"></use></g></g><g><use xlink:href="#ep4QSpwhC" opacity="1" fill="#ffffff" fill-opacity="1"></use><g><use xlink:href="#ep4QSpwhC" opacity="1" fill-opacity="0" stroke="#000000" stroke-width="1" stroke-opacity="0"></use></g></g><g><use xlink:href="#b3mqJgDwg0" opacity="1" fill="#ffffff" fill-opacity="1"></use><g><use xlink:href="#b3mqJgDwg0" opacity="1" fill-opacity="0" stroke="#000000" stroke-width="1" stroke-opacity="0"></use></g></g><g><use xlink:href="#ae3YDZA9j" opacity="1" fill="#ffffff" fill-opacity="1"></use><g><use xlink:href="#ae3YDZA9j" opacity="1" fill-opacity="0" stroke="#000000" stroke-width="1" stroke-opacity="0"></use></g></g><g><use xlink:href="#a7FTnHQmw" opacity="1" fill="#ffffff" fill-opacity="1"></use><g><use xlink:href="#a7FTnHQmw" opacity="1" fill-opacity="0" stroke="#000000" stroke-width="1" stroke-opacity="0"></use></g></g><g><use xlink:href="#a5GLrcF2yb" opacity="1" fill="#ffffff" fill-opacity="1"></use><g><use xlink:href="#a5GLrcF2yb" opacity="1" fill-opacity="0" stroke="#000000" stroke-width="1" stroke-opacity="0"></use></g></g><g><use xlink:href="#a1l1Pihqjy" opacity="1" fill="#ffffff" fill-opacity="1"></use><g><use xlink:href="#a1l1Pihqjy" opacity="1" fill-opacity="0" stroke="#000000" stroke-width="1" stroke-opacity="0"></use></g></g></g></g></svg>